name ./resultDataOpenSim/trcMotMarkerGrf/sub06/grf-01-08.mot
datacolumns 19
datarows 17
range 1.41600000 1.48000000
endheader

                time	     ground_force_vx	     ground_force_vy	     ground_force_vz	     ground_force_px	     ground_force_py	     ground_force_pz	   l_ground_force_vx	   l_ground_force_vy	   l_ground_force_vz	   l_ground_force_px	   l_ground_force_py	   l_ground_force_pz	     ground_torque_x	     ground_torque_y	     ground_torque_z	   l_ground_torque_x	   l_ground_torque_y	   l_ground_torque_z	
          1.41600000	         49.52962553	        538.84341165	        -20.32192069	          0.90138035	          0.00000000	          0.10832245	          0.00000000	          0.00000000	          0.00000000	          0.00000000	          0.00000000	          0.00000000	          0.00000000	          3.53080748	          0.00000000	          0.00000000	          0.00000000	          0.00000000	
          1.42000000	         54.34124250	        555.19430158	        -17.85124257	          0.90165912	          0.00000000	          0.10764338	          0.00000000	          0.00000000	          0.00000000	          0.00000000	          0.00000000	          0.00000000	          0.00000000	          3.65943938	          0.00000000	          0.00000000	          0.00000000	          0.00000000	
          1.42400000	         58.64825921	        571.62541468	        -14.70758933	          0.90205721	          0.00000000	          0.10694301	          0.00000000	          0.00000000	          0.00000000	          0.00000000	          0.00000000	          0.00000000	          0.00000000	          3.79679937	          0.00000000	          0.00000000	          0.00000000	          0.00000000	
          1.42800000	         62.38167375	        588.04919877	        -11.44327915	          0.90256739	          0.00000000	          0.10624279	          0.00000000	          0.00000000	          0.00000000	          0.00000000	          0.00000000	          0.00000000	          0.00000000	          3.95388360	          0.00000000	          0.00000000	          0.00000000	          0.00000000	
          1.43200000	         65.69275157	        604.38595532	         -8.60935593	          0.90315251	          0.00000000	          0.10556384	          0.00000000	          0.00000000	          0.00000000	          0.00000000	          0.00000000	          0.00000000	          0.00000000	          4.13407554	          0.00000000	          0.00000000	          0.00000000	          0.00000000	
          1.43600000	         68.90896065	        620.55032848	         -6.66536749	          0.90376478	          0.00000000	          0.10492823	          0.00000000	          0.00000000	          0.00000000	          0.00000000	          0.00000000	          0.00000000	          0.00000000	          4.33251406	          0.00000000	          0.00000000	          0.00000000	          0.00000000	
          1.44000000	         72.44527969	        636.43869672	         -5.91107836	          0.90434851	          0.00000000	          0.10435649	          0.00000000	          0.00000000	          0.00000000	          0.00000000	          0.00000000	          0.00000000	          0.00000000	          4.53727833	          0.00000000	          0.00000000	          0.00000000	          0.00000000	
          1.44400000	         76.68775093	        651.92226051	         -6.44242982	          0.90485874	          0.00000000	          0.10386048	          0.00000000	          0.00000000	          0.00000000	          0.00000000	          0.00000000	          0.00000000	          0.00000000	          4.73258370	          0.00000000	          0.00000000	          0.00000000	          0.00000000	
          1.44800000	         81.88287578	        666.84920852	         -8.13684425	          0.90527349	          0.00000000	          0.10344027	          0.00000000	          0.00000000	          0.00000000	          0.00000000	          0.00000000	          0.00000000	          0.00000000	          4.90334553	          0.00000000	          0.00000000	          0.00000000	          0.00000000	
          1.45200000	         88.06823210	        681.06628403	        -10.67669726	          0.90559449	          0.00000000	          0.10308318	          0.00000000	          0.00000000	          0.00000000	          0.00000000	          0.00000000	          0.00000000	          0.00000000	          5.03953861	          0.00000000	          0.00000000	          0.00000000	          0.00000000	
          1.45600000	         95.06670246	        694.45162311	        -13.61109838	          0.90584959	          0.00000000	          0.10276586	          0.00000000	          0.00000000	          0.00000000	          0.00000000	          0.00000000	          0.00000000	          0.00000000	          5.13854663	          0.00000000	          0.00000000	          0.00000000	          0.00000000	
          1.46000000	        102.53982106	        706.92568693	        -16.44280721	          0.90608467	          0.00000000	          0.10245981	          0.00000000	          0.00000000	          0.00000000	          0.00000000	          0.00000000	          0.00000000	          0.00000000	          5.20453589	          0.00000000	          0.00000000	          0.00000000	          0.00000000	
          1.46400000	        110.08065070	        718.43317723	        -18.72411366	          0.90634362	          0.00000000	          0.10213873	          0.00000000	          0.00000000	          0.00000000	          0.00000000	          0.00000000	          0.00000000	          0.00000000	          5.24537943	          0.00000000	          0.00000000	          0.00000000	          0.00000000	
          1.46800000	        117.32091864	        728.91819149	        -20.14036148	          0.90665922	          0.00000000	          0.10178773	          0.00000000	          0.00000000	          0.00000000	          0.00000000	          0.00000000	          0.00000000	          0.00000000	          5.26886364	          0.00000000	          0.00000000	          0.00000000	          0.00000000	
          1.47200000	        124.01640833	        738.30318899	        -20.55818707	          0.90704907	          0.00000000	          0.10140676	          0.00000000	          0.00000000	          0.00000000	          0.00000000	          0.00000000	          0.00000000	          0.00000000	          5.28007463	          0.00000000	          0.00000000	          0.00000000	          0.00000000	
          1.47600000	        130.08077246	        746.47174131	        -20.03206600	          0.90750503	          0.00000000	          0.10100505	          0.00000000	          0.00000000	          0.00000000	          0.00000000	          0.00000000	          0.00000000	          0.00000000	          5.28095522	          0.00000000	          0.00000000	          0.00000000	          0.00000000	
          1.48000000	        135.56776616	        753.26817341	        -18.77827779	          0.90800396	          0.00000000	          0.10059740	          0.00000000	          0.00000000	          0.00000000	          0.00000000	          0.00000000	          0.00000000	          0.00000000	          5.27168520	          0.00000000	          0.00000000	          0.00000000	          0.00000000	
